<?xml version="1.0" encoding="UTF-8" standalone="no"?>
<!-- Generator: Gravit.io -->
<svg xmlns="http://www.w3.org/2000/svg" xmlns:xlink="http://www.w3.org/1999/xlink" style="isolation:isolate" viewBox="559.501 240 603.499 1482" width="603.499pt" height="1482pt"><defs><clipPath id="_clipPath_UhzMPaOI66Thp4d8G71sDOy6lSDdKUqp"><rect x="559.501" y="240" width="603.499" height="1482"/></clipPath></defs><g clip-path="url(#_clipPath_UhzMPaOI66Thp4d8G71sDOy6lSDdKUqp)"><g><g clip-path="url(#_clipPath_yT1kiPdY6uKYejtFGOcAymmhoxNkf7P5)"><text transform="matrix(1,0,0,1,652.5,1710.655)" style="font-family:'Open Sans';font-weight:700;font-size:12px;font-style:normal;fill:#a26914;stroke:none;">Browser Engine</text></g><defs><clipPath id="_clipPath_yT1kiPdY6uKYejtFGOcAymmhoxNkf7P5"><rect x="0" y="0" width="95" height="16.342" transform="matrix(1,0,0,1,652.5,1697.829)"/></clipPath></defs><mask id="_mask_JS0fEbfWl5ge5opK8YN0jVhvXyjZ09y0"><rect x="590" y="1690" width="220" height="32" fill="white" stroke="none"/></mask><rect x="590" y="1690" width="220" height="32" transform="matrix(1,0,0,1,0,0)" fill="none"/><rect x="590" y="1690" width="220" height="32" transform="matrix(1,0,0,1,0,0)" fill="none" mask="url(#_mask_JS0fEbfWl5ge5opK8YN0jVhvXyjZ09y0)" vector-effect="non-scaling-stroke" stroke-width="2" stroke="rgb(170,125,58)" stroke-linejoin="miter" stroke-linecap="square" stroke-miterlimit="2"/></g><g><g clip-path="url(#_clipPath_KI7KNfAMBwtADMF6RobVxGh1DooNRHIV)"><text transform="matrix(1,0,0,1,847,1685.484)" style="font-family:'Open Sans';font-weight:400;font-size:12px;font-style:normal;fill:#000000;stroke:none;">client</text></g><defs><clipPath id="_clipPath_KI7KNfAMBwtADMF6RobVxGh1DooNRHIV"><rect x="0" y="0" width="33" height="16.342" transform="matrix(1,0,0,1,847,1672.658)"/></clipPath></defs><line x1="560" y1="1671" x2="880" y2="1671" vector-effect="non-scaling-stroke" stroke-width="1" stroke-dasharray="4,5" stroke="rgb(151,151,151)" stroke-linejoin="miter" stroke-linecap="square" stroke-miterlimit="3"/></g><g><line x1="705" y1="1597" x2="705" y2="1689" vector-effect="non-scaling-stroke" stroke-width="1" stroke="rgb(181,124,40)" stroke-linejoin="miter" stroke-linecap="square" stroke-miterlimit="3"/><path d=" M 700 1679 L 705 1689 L 710 1679 Z " fill="rgb(181,124,40)" stroke="none"/><g clip-path="url(#_clipPath_yk1chfAoPUk4lczi2oD13sp3hZFfmlqe)"><text transform="matrix(1,0,0,1,710,1609.826)" style="font-family:'Open Sans';font-weight:400;font-size:12px;font-style:normal;fill:#a26914;stroke:none;">response</text></g><defs><clipPath id="_clipPath_yk1chfAoPUk4lczi2oD13sp3hZFfmlqe"><rect x="0" y="0" width="54" height="16.342" transform="matrix(1,0,0,1,710,1597)"/></clipPath></defs><rect x="660" y="1565" width="435" height="32" transform="matrix(1,0,0,1,0,0)" fill="rgb(251,238,218)"/><g clip-path="url(#_clipPath_nnDG1zwtZn578TvtpgyZpgWDPWgchsR2)"><text transform="matrix(1,0,0,1,763.5,1585.655)" style="font-family:'Open Sans';font-weight:700;font-size:12px;font-style:normal;fill:#a26914;stroke:none;">hooks.server.js handle() after resolve </text></g><defs><clipPath id="_clipPath_nnDG1zwtZn578TvtpgyZpgWDPWgchsR2"><rect x="0" y="0" width="228" height="16.342" transform="matrix(1,0,0,1,763.5,1572.829)"/></clipPath></defs></g><g><path d=" M 1064 1565 Q 1052.579 1533.593 1024 1565" fill="none" vector-effect="non-scaling-stroke" stroke-width="1" stroke="rgb(152,0,0)" stroke-linejoin="miter" stroke-linecap="square" stroke-miterlimit="3"/><path d=" M 1027.07 1554.249 L 1024 1565 L 1034.442 1561.006 Z " fill="rgb(152,0,0)" stroke="none"/><g clip-path="url(#_clipPath_I4paIJ7ngGcqUwP8IOVFyrDGTyfgRtap)"><text transform="matrix(1,0,0,1,1014,1527.143)" style="font-family:'Open Sans';font-weight:400;font-size:12px;font-style:normal;fill:#980000;stroke:none;">response,</text><text transform="matrix(1,0,0,1,1014,1543.484)" style="font-family:'Open Sans';font-weight:400;font-size:12px;font-style:normal;fill:#980000;stroke:none;">event.locals</text></g><defs><clipPath id="_clipPath_I4paIJ7ngGcqUwP8IOVFyrDGTyfgRtap"><rect x="0" y="0" width="69" height="32.684" transform="matrix(1,0,0,1,1014,1514.316)"/></clipPath></defs></g><g><line x1="765" y1="1548" x2="765" y2="1565" vector-effect="non-scaling-stroke" stroke-width="1" stroke="rgb(181,124,40)" stroke-linejoin="miter" stroke-linecap="square" stroke-miterlimit="3"/><path d=" M 760 1555 L 765 1565 L 770 1555 Z " fill="rgb(181,124,40)" stroke="none"/><g clip-path="url(#_clipPath_gM8BZ1AsYgFP4ts8pY0JgXr4x137bbDI)"><text transform="matrix(1,0,0,1,770,1561.484)" style="font-family:'Open Sans';font-weight:400;font-size:12px;font-style:normal;fill:#a26914;stroke:none;">response = await resolve(...)</text></g><defs><clipPath id="_clipPath_gM8BZ1AsYgFP4ts8pY0JgXr4x137bbDI"><rect x="0" y="0" width="158" height="16.342" transform="matrix(1,0,0,1,770,1548.658)"/></clipPath></defs><rect x="750" y="1515" width="190" height="32" transform="matrix(1,0,0,1,0,0)" fill="rgb(227,214,194)"/><g clip-path="url(#_clipPath_ocLFnVzwiVyNylRY0M3BCoFbo8vJCtbN)"><text transform="matrix(1,0,0,1,810,1535.655)" style="font-family:'Open Sans';font-weight:700;font-size:12px;font-style:normal;fill:#a26914;stroke:none;">Page Route</text></g><defs><clipPath id="_clipPath_ocLFnVzwiVyNylRY0M3BCoFbo8vJCtbN"><rect x="0" y="0" width="70" height="16.342" transform="matrix(1,0,0,1,810,1522.829)"/></clipPath></defs></g><g><line x1="765" y1="1494" x2="765" y2="1515" vector-effect="non-scaling-stroke" stroke-width="1" stroke="rgb(181,124,40)" stroke-linejoin="miter" stroke-linecap="square" stroke-miterlimit="3"/><path d=" M 760 1505 L 765 1515 L 770 1505 Z " fill="rgb(181,124,40)" stroke="none"/><g clip-path="url(#_clipPath_CPrndri8QKcElDYwWimBWzbiZx1XjHR1)"><text transform="matrix(1,0,0,1,770,1509.484)" style="font-family:'Open Sans';font-weight:400;font-size:12px;font-style:normal;fill:#a26914;stroke:none;">[page]</text></g><defs><clipPath id="_clipPath_CPrndri8QKcElDYwWimBWzbiZx1XjHR1"><rect x="0" y="0" width="38" height="16.342" transform="matrix(1,0,0,1,770,1496.658)"/></clipPath></defs><rect x="750" y="1460" width="345" height="32" transform="matrix(1,0,0,1,0,0)" fill="rgb(251,238,218)"/><g clip-path="url(#_clipPath_junEJTkLrveg3oGhXb1nYQhzKre0eLxO)"><text transform="matrix(1,0,0,1,884,1480.655)" style="font-family:'Open Sans';font-weight:700;font-size:12px;font-style:normal;fill:#a26914;stroke:none;">+page.svelte</text></g><defs><clipPath id="_clipPath_junEJTkLrveg3oGhXb1nYQhzKre0eLxO"><rect x="0" y="0" width="77" height="16.342" transform="matrix(1,0,0,1,884,1467.829)"/></clipPath></defs></g><g><g clip-path="url(#_clipPath_plpKmuEwzjpoyz0ShlytjpqRE7a7V6Lr)"><text transform="matrix(1,0,0,1,933.25,1431.826)" style="font-family:'Open Sans';font-weight:400;font-size:12px;font-style:normal;fill:#a26914;stroke:none;">setContext("name")</text><text transform="matrix(1,0,0,1,933.25,1448.168)" style="font-family:'Open Sans';font-weight:400;font-size:12px;font-style:normal;fill:#a26914;stroke:none;">as getContext("name")</text></g><defs><clipPath id="_clipPath_plpKmuEwzjpoyz0ShlytjpqRE7a7V6Lr"><rect x="0" y="0" width="128" height="32.684" transform="matrix(1,0,0,1,933.25,1419)"/></clipPath></defs><line x1="928.5" y1="1412" x2="928.5" y2="1460" vector-effect="non-scaling-stroke" stroke-width="1" stroke="rgb(181,124,40)" stroke-linejoin="miter" stroke-linecap="square" stroke-miterlimit="3"/><path d=" M 923.5 1450 L 928.5 1460 L 933.5 1450 Z " fill="rgb(181,124,40)" stroke="none"/><rect x="906.5" y="1380" width="152.5" height="32" transform="matrix(1,0,0,1,0,0)" fill="rgb(251,238,218)"/><g clip-path="url(#_clipPath_jrBO7dxVCk3bQxiKU91uTf0rCEUWMba0)"><text transform="matrix(1,0,0,1,939.25,1400.655)" style="font-family:'Open Sans';font-weight:700;font-size:12px;font-style:normal;fill:#a26914;stroke:none;">+layout.svelte</text></g><defs><clipPath id="_clipPath_jrBO7dxVCk3bQxiKU91uTf0rCEUWMba0"><rect x="0" y="0" width="87" height="16.342" transform="matrix(1,0,0,1,939.25,1387.829)"/></clipPath></defs></g><g><path d=" M 960.047 1380.592 Q 971.468 1349.185 1000.047 1380.592" fill="none" vector-effect="non-scaling-stroke" stroke-width="1" stroke="rgb(152,0,0)" stroke-linejoin="miter" stroke-linecap="square" stroke-miterlimit="3"/><path d=" M 989.604 1376.597 L 1000.047 1380.592 L 996.977 1369.841 Z " fill="rgb(152,0,0)" stroke="none"/><g clip-path="url(#_clipPath_XkTJ006LykMRkBJO8hFZzYi6C8P8WnNv)"><text transform="matrix(1,0,0,1,926.975,1340.826)" style="font-family:'Open Sans';font-weight:400;font-size:12px;font-style:normal;fill:#980000;stroke:none;">setContext("name")</text><text transform="matrix(1,0,0,1,910.609,1357.168)" style="font-family:'Open Sans';font-weight:400;font-size:12px;font-style:normal;fill:#980000;stroke:none;">as getContext("name")</text></g><defs><clipPath id="_clipPath_XkTJ006LykMRkBJO8hFZzYi6C8P8WnNv"><rect x="0" y="0" width="128" height="32.684" transform="matrix(1,0,0,1,910,1328)"/></clipPath></defs></g><g><line x1="886" y1="1395" x2="905" y2="1395" vector-effect="non-scaling-stroke" stroke-width="1" stroke="rgb(181,124,40)" stroke-linejoin="miter" stroke-linecap="square" stroke-miterlimit="3"/><path d=" M 895 1400 L 905 1395 L 895 1390 Z " fill="rgb(181,124,40)" stroke="none"/><line x1="886" y1="1277" x2="886" y2="1460" vector-effect="non-scaling-stroke" stroke-width="1" stroke="rgb(181,124,40)" stroke-linejoin="miter" stroke-linecap="square" stroke-miterlimit="3"/><path d=" M 881 1450 L 886 1460 L 891 1450 Z " fill="rgb(181,124,40)" stroke="none"/><g clip-path="url(#_clipPath_v3hpQCmCGA1EyrstmJnVPBdH7iCNZ9aW)"><text transform="matrix(1,0,0,1,891,1291.801)" style="font-family:'Open Sans';font-weight:400;font-size:12px;font-style:normal;fill:#a26914;stroke:none;">[data object] as </text><text transform="matrix(1,0,0,1,891,1308.143)" style="font-family:'Open Sans';font-weight:400;font-size:12px;font-style:normal;fill:#a26914;stroke:none;">$page.data</text></g><defs><clipPath id="_clipPath_v3hpQCmCGA1EyrstmJnVPBdH7iCNZ9aW"><rect x="0" y="0" width="91" height="32.684" transform="matrix(1,0,0,1,891,1278.975)"/></clipPath></defs><line x1="765" y1="1277" x2="765" y2="1460" vector-effect="non-scaling-stroke" stroke-width="1" stroke="rgb(181,124,40)" stroke-linejoin="miter" stroke-linecap="square" stroke-miterlimit="3"/><path d=" M 760 1450 L 765 1460 L 770 1450 Z " fill="rgb(181,124,40)" stroke="none"/><g clip-path="url(#_clipPath_D6yhRVdnwp9gsqgQaiuTVbm1DlXDLQhr)"><text transform="matrix(1,0,0,1,770,1291.801)" style="font-family:'Open Sans';font-weight:400;font-size:12px;font-style:normal;fill:#a26914;stroke:none;">[data object] as </text><text transform="matrix(1,0,0,1,770,1308.143)" style="font-family:'Open Sans';font-weight:400;font-size:12px;font-style:normal;fill:#a26914;stroke:none;">export let data</text></g><defs><clipPath id="_clipPath_D6yhRVdnwp9gsqgQaiuTVbm1DlXDLQhr"><rect x="0" y="0" width="91" height="32.684" transform="matrix(1,0,0,1,770,1278.975)"/></clipPath></defs><rect x="750" y="1245" width="190" height="32" transform="matrix(1,0,0,1,0,0)" fill="rgb(227,214,194)"/><g clip-path="url(#_clipPath_t6hSSQE3EwTI8OldRWlWqbKXC3c7RVRZ)"><text transform="matrix(1,0,0,1,810,1265.655)" style="font-family:'Open Sans';font-weight:700;font-size:12px;font-style:normal;fill:#a26914;stroke:none;">data object</text></g><defs><clipPath id="_clipPath_t6hSSQE3EwTI8OldRWlWqbKXC3c7RVRZ"><rect x="0" y="0" width="70" height="16.342" transform="matrix(1,0,0,1,810,1252.829)"/></clipPath></defs></g><g><g clip-path="url(#_clipPath_k9addumIMzAOqrswVoOJ7z0czFPuuz6H)"><text transform="matrix(1,0,0,1,770,1207.826)" style="font-family:'Open Sans';font-weight:400;font-size:12px;font-style:normal;fill:#a26914;stroke:none;">return data</text><text transform="matrix(1,0,0,1,770,1224.168)" style="font-family:'Open Sans';font-weight:400;font-size:12px;font-style:normal;fill:#a26914;stroke:none;">as</text><text transform="matrix(1,0,0,1,770,1240.51)" style="font-family:'Open Sans';font-weight:400;font-size:12px;font-style:normal;fill:#a26914;stroke:none;">[part of data object]</text></g><defs><clipPath id="_clipPath_k9addumIMzAOqrswVoOJ7z0czFPuuz6H"><rect x="0" y="0" width="115.25" height="49.025" transform="matrix(1,0,0,1,770,1195)"/></clipPath></defs><line x1="765" y1="1192" x2="765" y2="1245" vector-effect="non-scaling-stroke" stroke-width="1" stroke="rgb(181,124,40)" stroke-linejoin="miter" stroke-linecap="square" stroke-miterlimit="3"/><path d=" M 760 1235 L 765 1245 L 770 1235 Z " fill="rgb(181,124,40)" stroke="none"/><rect x="750" y="1160" width="170" height="32" transform="matrix(1,0,0,1,0,0)" fill="rgb(251,238,218)"/><g clip-path="url(#_clipPath_l0tzppdbkVcWCY0aoEJQhbVqNPBw1RwJ)"><text transform="matrix(1,0,0,1,791.7,1180.655)" style="font-family:'Open Sans';font-weight:700;font-size:12px;font-style:normal;fill:#a26914;stroke:none;">+page.js load()</text></g><defs><clipPath id="_clipPath_l0tzppdbkVcWCY0aoEJQhbVqNPBw1RwJ"><rect x="0" y="0" width="88" height="16.342" transform="matrix(1,0,0,1,791.7,1167.829)"/></clipPath></defs></g><g><g clip-path="url(#_clipPath_DyYFKwQ25A4gVanHfHcICK4C7U2swzoU)"><text transform="matrix(1,0,0,1,770,1072.801)" style="font-family:'Open Sans';font-weight:400;font-size:12px;font-style:normal;fill:#a26914;stroke:none;">return data as </text><text transform="matrix(1,0,0,1,770,1089.143)" style="font-family:'Open Sans';font-weight:400;font-size:12px;font-style:normal;fill:#a26914;stroke:none;">event.data</text></g><defs><clipPath id="_clipPath_DyYFKwQ25A4gVanHfHcICK4C7U2swzoU"><rect x="0" y="0" width="82" height="32.684" transform="matrix(1,0,0,1,770,1059.975)"/></clipPath></defs><line x1="765" y1="1062" x2="765" y2="1160" vector-effect="non-scaling-stroke" stroke-width="1" stroke="rgb(181,124,40)" stroke-linejoin="miter" stroke-linecap="square" stroke-miterlimit="3"/><path d=" M 760 1150 L 765 1160 L 770 1150 Z " fill="rgb(181,124,40)" stroke="none"/><rect x="750" y="1030" width="150" height="32" transform="matrix(1,0,0,1,0,0)" fill="rgb(251,238,218)"/><g clip-path="url(#_clipPath_8ujlkKGd0jm2q1n2dBDNA1MoPzHdDRZY)"><text transform="matrix(1,0,0,1,760,1050.655)" style="font-family:'Open Sans';font-weight:700;font-size:12px;font-style:normal;fill:#a26914;stroke:none;">+page.server.js load()</text></g><defs><clipPath id="_clipPath_8ujlkKGd0jm2q1n2dBDNA1MoPzHdDRZY"><rect x="0" y="0" width="130" height="16.342" transform="matrix(1,0,0,1,760,1037.829)"/></clipPath></defs></g><g><line x1="1049" y1="977" x2="1049" y2="1380.025" vector-effect="non-scaling-stroke" stroke-width="1" stroke="rgb(181,124,40)" stroke-linejoin="miter" stroke-linecap="square" stroke-miterlimit="3"/><path d=" M 1044 1370.025 L 1049 1380.025 L 1054 1370.025 Z " fill="rgb(181,124,40)" stroke="none"/><g clip-path="url(#_clipPath_kPVUzP4TSaF90qkJQ1PxMa1Vq3ruRIXE)"><text transform="matrix(1,0,0,1,949.848,1088.826)" style="font-family:'Open Sans';font-weight:400;font-size:12px;font-style:normal;fill:#a26914;stroke:none;">each return data</text><text transform="matrix(1,0,0,1,1030.602,1105.168)" style="font-family:'Open Sans';font-weight:400;font-size:12px;font-style:normal;fill:#a26914;stroke:none;">as</text><text transform="matrix(1,0,0,1,961.068,1121.51)" style="font-family:'Open Sans';font-weight:400;font-size:12px;font-style:normal;fill:#a26914;stroke:none;">export let data</text></g><defs><clipPath id="_clipPath_kPVUzP4TSaF90qkJQ1PxMa1Vq3ruRIXE"><rect x="0" y="0" width="112" height="49.025" transform="matrix(1,0,0,1,933,1076)"/></clipPath></defs><line x1="928.5" y1="977" x2="928.5" y2="1245" vector-effect="non-scaling-stroke" stroke-width="1" stroke="rgb(181,124,40)" stroke-linejoin="miter" stroke-linecap="square" stroke-miterlimit="3"/><path d=" M 923.5 1235 L 928.5 1245 L 933.5 1235 Z " fill="rgb(181,124,40)" stroke="none"/><g clip-path="url(#_clipPath_lChJ8o2mWICMoDQV72ZCEFL2zu0OHhtX)"><text transform="matrix(1,0,0,1,933.25,991.852)" style="font-family:'Open Sans';font-weight:400;font-size:12px;font-style:normal;fill:#a26914;stroke:none;">each return data</text><text transform="matrix(1,0,0,1,933.25,1008.193)" style="font-family:'Open Sans';font-weight:400;font-size:12px;font-style:normal;fill:#a26914;stroke:none;">as</text><text transform="matrix(1,0,0,1,933.25,1024.535)" style="font-family:'Open Sans';font-weight:400;font-size:12px;font-style:normal;fill:#a26914;stroke:none;">[part of data object]</text></g><defs><clipPath id="_clipPath_lChJ8o2mWICMoDQV72ZCEFL2zu0OHhtX"><rect x="0" y="0" width="115.25" height="49.025" transform="matrix(1,0,0,1,933.25,979.025)"/></clipPath></defs><line x1="915" y1="977" x2="915" y2="1160" vector-effect="non-scaling-stroke" stroke-width="1" stroke="rgb(181,124,40)" stroke-linejoin="miter" stroke-linecap="square" stroke-miterlimit="3"/><path d=" M 910 1150 L 915 1160 L 920 1150 Z " fill="rgb(181,124,40)" stroke="none"/><g clip-path="url(#_clipPath_4QYr6vv6qAgjWFPaqqfd5P0Oumsdp6Vp)"><text transform="matrix(1,0,0,1,798.332,1119.826)" style="font-family:'Open Sans';font-weight:400;font-size:12px;font-style:normal;fill:#a26914;stroke:none;">each return data as</text><text transform="matrix(1,0,0,1,795.297,1136.168)" style="font-family:'Open Sans';font-weight:400;font-size:12px;font-style:normal;fill:#a26914;stroke:none;">await event.parent()</text></g><defs><clipPath id="_clipPath_4QYr6vv6qAgjWFPaqqfd5P0Oumsdp6Vp"><rect x="0" y="0" width="114" height="32.684" transform="matrix(1,0,0,1,795,1107)"/></clipPath></defs><rect x="865" y="945" width="196.877" height="32" transform="matrix(1,0,0,1,0,0)" fill="rgb(251,238,218)"/><g clip-path="url(#_clipPath_4mMFZzG1YgfVASdLQR83XQiDBp0S1T0S)"><text transform="matrix(1,0,0,1,914.439,965.655)" style="font-family:'Open Sans';font-weight:700;font-size:12px;font-style:normal;fill:#a26914;stroke:none;">+layout.js load()</text></g><defs><clipPath id="_clipPath_4mMFZzG1YgfVASdLQR83XQiDBp0S1T0S"><rect x="0" y="0" width="98" height="16.342" transform="matrix(1,0,0,1,914.439,952.829)"/></clipPath></defs></g><g><path d=" M 1014 945 Q 1025.421 913.593 1054 945" fill="none" vector-effect="non-scaling-stroke" stroke-width="1" stroke="rgb(152,0,0)" stroke-linejoin="miter" stroke-linecap="square" stroke-miterlimit="3"/><path d=" M 1043.558 941.006 L 1054 945 L 1050.93 934.249 Z " fill="rgb(152,0,0)" stroke="none"/><g clip-path="url(#_clipPath_rji9ZXXAykn5rbHe4MxCL7K5eewHJJlW)"><text transform="matrix(1,0,0,1,958,888.826)" style="font-family:'Open Sans';font-weight:400;font-size:12px;font-style:normal;fill:#980000;stroke:none;">each return data </text><text transform="matrix(1,0,0,1,958,905.168)" style="font-family:'Open Sans';font-weight:400;font-size:12px;font-style:normal;fill:#980000;stroke:none;">as part of </text><text transform="matrix(1,0,0,1,958,921.51)" style="font-family:'Open Sans';font-weight:400;font-size:12px;font-style:normal;fill:#980000;stroke:none;">await event.parent()</text></g><defs><clipPath id="_clipPath_rji9ZXXAykn5rbHe4MxCL7K5eewHJJlW"><rect x="0" y="0" width="119" height="51" transform="matrix(1,0,0,1,958,876)"/></clipPath></defs></g><g><line x1="873" y1="907" x2="873" y2="945" vector-effect="non-scaling-stroke" stroke-width="1" stroke="rgb(181,124,40)" stroke-linejoin="miter" stroke-linecap="square" stroke-miterlimit="3"/><path d=" M 868 935 L 873 945 L 878 935 Z " fill="rgb(181,124,40)" stroke="none"/><g clip-path="url(#_clipPath_eAdfpDAZ1ejcDpvKeWF59K5APLi8Tu2u)"><text transform="matrix(1,0,0,1,877,922.826)" style="font-family:'Open Sans';font-weight:400;font-size:12px;font-style:normal;fill:#a26914;stroke:none;">return data </text><text transform="matrix(1,0,0,1,877,939.168)" style="font-family:'Open Sans';font-weight:400;font-size:12px;font-style:normal;fill:#a26914;stroke:none;">as event.data</text></g><defs><clipPath id="_clipPath_eAdfpDAZ1ejcDpvKeWF59K5APLi8Tu2u"><rect x="0" y="0" width="77" height="32.684" transform="matrix(1,0,0,1,877,910)"/></clipPath></defs><line x1="855.333" y1="907" x2="855.333" y2="1030" vector-effect="non-scaling-stroke" stroke-width="1" stroke="rgb(181,124,40)" stroke-linejoin="miter" stroke-linecap="square" stroke-miterlimit="3"/><path d=" M 850.333 1020 L 855.333 1030 L 860.333 1020 Z " fill="rgb(181,124,40)" stroke="none"/><g clip-path="url(#_clipPath_iAkG8stp0CFtamQpXWghEw3FVi8kA9vq)"><text transform="matrix(1,0,0,1,756.181,927.852)" style="font-family:'Open Sans';font-weight:400;font-size:12px;font-style:normal;fill:#a26914;stroke:none;">each return data</text><text transform="matrix(1,0,0,1,793.107,944.193)" style="font-family:'Open Sans';font-weight:400;font-size:12px;font-style:normal;fill:#a26914;stroke:none;"> as part of</text><text transform="matrix(1,0,0,1,734.513,960.535)" style="font-family:'Open Sans';font-weight:400;font-size:12px;font-style:normal;fill:#a26914;stroke:none;"> await event.parent()</text></g><defs><clipPath id="_clipPath_iAkG8stp0CFtamQpXWghEw3FVi8kA9vq"><rect x="0" y="0" width="118.333" height="49.025" transform="matrix(1,0,0,1,733,915.025)"/></clipPath></defs><rect x="750" y="875" width="150" height="32" transform="matrix(1,0,0,1,0,0)" fill="rgb(251,238,218)"/><g clip-path="url(#_clipPath_KWOSQfUYpy64B7rHH5S3EHQCQhOtxt4s)"><text transform="matrix(1,0,0,1,755.5,895.655)" style="font-family:'Open Sans';font-weight:700;font-size:12px;font-style:normal;fill:#a26914;stroke:none;">+layout.server.js load()</text></g><defs><clipPath id="_clipPath_KWOSQfUYpy64B7rHH5S3EHQCQhOtxt4s"><rect x="0" y="0" width="139" height="16.342" transform="matrix(1,0,0,1,755.5,882.829)"/></clipPath></defs></g><g><path d=" M 757 873 Q 768.421 841.593 797 873" fill="none" vector-effect="non-scaling-stroke" stroke-width="1" stroke="rgb(152,0,0)" stroke-linejoin="miter" stroke-linecap="square" stroke-miterlimit="3"/><path d=" M 786.558 869.006 L 797 873 L 793.93 862.249 Z " fill="rgb(152,0,0)" stroke="none"/><g clip-path="url(#_clipPath_P55tNqHDkx9LoEll80nqjMIoSeT0EyQP)"><text transform="matrix(1,0,0,1,803.211,836.801)" style="font-family:'Open Sans';font-weight:400;font-size:12px;font-style:normal;fill:#980000;stroke:none;">each return data </text><text transform="matrix(1,0,0,1,803.211,853.143)" style="font-family:'Open Sans';font-weight:400;font-size:12px;font-style:normal;fill:#980000;stroke:none;">as part of </text><text transform="matrix(1,0,0,1,803.211,869.484)" style="font-family:'Open Sans';font-weight:400;font-size:12px;font-style:normal;fill:#980000;stroke:none;">await event.parent()</text></g><defs><clipPath id="_clipPath_P55tNqHDkx9LoEll80nqjMIoSeT0EyQP"><rect x="0" y="0" width="131.578" height="49.025" transform="matrix(1,0,0,1,803.211,823.975)"/></clipPath></defs></g><g><line x1="705" y1="1045" x2="750" y2="1045" vector-effect="non-scaling-stroke" stroke-width="1" stroke="rgb(181,124,40)" stroke-linejoin="miter" stroke-linecap="square" stroke-miterlimit="3"/><path d=" M 740 1050 L 750 1045 L 740 1040 Z " fill="rgb(181,124,40)" stroke="none"/><line x1="705" y1="892" x2="750" y2="892" vector-effect="non-scaling-stroke" stroke-width="1" stroke="rgb(181,124,40)" stroke-linejoin="miter" stroke-linecap="square" stroke-miterlimit="3"/><path d=" M 740 897 L 750 892 L 740 887 Z " fill="rgb(181,124,40)" stroke="none"/><line x1="705" y1="802" x2="705" y2="1565" vector-effect="non-scaling-stroke" stroke-width="1" stroke="rgb(181,124,40)" stroke-linejoin="miter" stroke-linecap="square" stroke-miterlimit="3"/><path d=" M 700 1555 L 705 1565 L 710 1555 Z " fill="rgb(181,124,40)" stroke="none"/><g clip-path="url(#_clipPath_ySugXMmKHiNRy5Juuqk2yYOlwh8f9G1w)"><text transform="matrix(1,0,0,1,710,815.826)" style="font-family:'Open Sans';font-weight:400;font-size:12px;font-style:normal;fill:#a26914;stroke:none;">event.locals</text></g><defs><clipPath id="_clipPath_ySugXMmKHiNRy5Juuqk2yYOlwh8f9G1w"><rect x="0" y="0" width="68" height="16.342" transform="matrix(1,0,0,1,710,803)"/></clipPath></defs><rect x="690" y="770" width="321" height="32" transform="matrix(1,0,0,1,0,0)" fill="rgb(251,238,218)"/><g clip-path="url(#_clipPath_e365jriW6PtixFjtMMTWaSUE5adrsSCF)"><text transform="matrix(1,0,0,1,733,790.655)" style="font-family:'Open Sans';font-weight:700;font-size:12px;font-style:normal;fill:#a26914;stroke:none;">hooks.server.js handle() before resolve</text></g><defs><clipPath id="_clipPath_e365jriW6PtixFjtMMTWaSUE5adrsSCF"><rect x="0" y="0" width="235" height="16.342" transform="matrix(1,0,0,1,733,777.829)"/></clipPath></defs></g><g><path d=" M 787 770 Q 798.421 738.593 827 770" fill="none" vector-effect="non-scaling-stroke" stroke-width="1" stroke="rgb(152,0,0)" stroke-linejoin="miter" stroke-linecap="square" stroke-miterlimit="3"/><path d=" M 816.558 766.006 L 827 770 L 823.93 759.249 Z " fill="rgb(152,0,0)" stroke="none"/><g clip-path="url(#_clipPath_qVdpD8nixiuMBQa5UQYOjH6wQq612gMD)"><text transform="matrix(1,0,0,1,713.5,749.826)" style="font-family:'Open Sans';font-weight:400;font-size:12px;font-style:normal;fill:#980000;stroke:none;">event.request,</text><text transform="matrix(1,0,0,1,713.5,766.168)" style="font-family:'Open Sans';font-weight:400;font-size:12px;font-style:normal;fill:#980000;stroke:none;">event.locals</text></g><defs><clipPath id="_clipPath_qVdpD8nixiuMBQa5UQYOjH6wQq612gMD"><rect x="0" y="0" width="87" height="32.684" transform="matrix(1,0,0,1,713.5,737)"/></clipPath></defs></g><g><line x1="1080" y1="1395" x2="1064" y2="1395" vector-effect="non-scaling-stroke" stroke-width="1" stroke="rgb(0,0,0)" stroke-linejoin="miter" stroke-linecap="square" stroke-miterlimit="3"/><path d=" M 1074 1390 L 1064 1395 L 1074 1400 Z " fill="rgb(0,0,0)" stroke="none"/><line x1="1080" y1="692" x2="1080" y2="1460" vector-effect="non-scaling-stroke" stroke-width="1" stroke="rgb(0,0,0)" stroke-linejoin="miter" stroke-linecap="square" stroke-miterlimit="3"/><path d=" M 1075 1450 L 1080 1460 L 1085 1450 Z " fill="rgb(0,0,0)" stroke="none"/><g clip-path="url(#_clipPath_xB9EM2Uy8QGvvun7BONq1eru5nqIm1Gq)"><text transform="matrix(1,0,0,1,935.621,717.092)" style="font-family:'Open Sans';font-weight:400;font-size:12px;font-style:normal;fill:#000000;stroke:none;">[url, params, route.id] as </text><text transform="matrix(1,0,0,1,1017.371,733.434)" style="font-family:'Open Sans';font-weight:400;font-size:12px;font-style:normal;fill:#000000;stroke:none;">$page.url, </text><text transform="matrix(1,0,0,1,905.615,749.775)" style="font-family:'Open Sans';font-weight:400;font-size:12px;font-style:normal;fill:#000000;stroke:none;">$page.params, $page.route.id</text></g><defs><clipPath id="_clipPath_xB9EM2Uy8QGvvun7BONq1eru5nqIm1Gq"><rect x="0" y="0" width="173" height="49.025" transform="matrix(1,0,0,1,902,704.266)"/></clipPath></defs><line x1="675" y1="1045" x2="705" y2="1045" vector-effect="non-scaling-stroke" stroke-width="1" stroke="rgb(0,0,0)" stroke-linejoin="miter" stroke-linecap="square" stroke-miterlimit="3"/><path d=" M 695 1050 L 705 1045 L 695 1040 Z " fill="rgb(0,0,0)" stroke="none"/><line x1="675" y1="892.5" x2="705" y2="892.5" vector-effect="non-scaling-stroke" stroke-width="1" stroke="rgb(0,0,0)" stroke-linejoin="miter" stroke-linecap="square" stroke-miterlimit="3"/><path d=" M 695 897.5 L 705 892.5 L 695 887.5 Z " fill="rgb(0,0,0)" stroke="none"/><line x1="675" y1="789" x2="690" y2="789" vector-effect="non-scaling-stroke" stroke-width="1" stroke="rgb(0,0,0)" stroke-linejoin="miter" stroke-linecap="square" stroke-miterlimit="3"/><path d=" M 680 794 L 690 789 L 680 784 Z " fill="rgb(0,0,0)" stroke="none"/><line x1="675" y1="692" x2="675" y2="1565" vector-effect="non-scaling-stroke" stroke-width="1" stroke="rgb(0,0,0)" stroke-linejoin="miter" stroke-linecap="square" stroke-miterlimit="3"/><path d=" M 670 1555 L 675 1565 L 680 1555 Z " fill="rgb(0,0,0)" stroke="none"/><g clip-path="url(#_clipPath_IFi8vm3EPTOPDRzNjQgCxMwDfpKj2Ffw)"><text transform="matrix(1,0,0,1,596.709,717.092)" style="font-family:'Open Sans';font-weight:400;font-size:12px;font-style:normal;fill:#000000;stroke:none;">[request, url,</text><text transform="matrix(1,0,0,1,568.326,733.434)" style="font-family:'Open Sans';font-weight:400;font-size:12px;font-style:normal;fill:#000000;stroke:none;"> params, route.id]</text><text transform="matrix(1,0,0,1,655.602,749.775)" style="font-family:'Open Sans';font-weight:400;font-size:12px;font-style:normal;fill:#000000;stroke:none;">as</text><text transform="matrix(1,0,0,1,587.744,766.117)" style="font-family:'Open Sans';font-weight:400;font-size:12px;font-style:normal;fill:#000000;stroke:none;">event.request,</text><text transform="matrix(1,0,0,1,615.488,782.459)" style="font-family:'Open Sans';font-weight:400;font-size:12px;font-style:normal;fill:#000000;stroke:none;">event.url,</text><text transform="matrix(1,0,0,1,588.301,798.801)" style="font-family:'Open Sans';font-weight:400;font-size:12px;font-style:normal;fill:#000000;stroke:none;">event.params,</text><text transform="matrix(1,0,0,1,589.666,815.143)" style="font-family:'Open Sans';font-weight:400;font-size:12px;font-style:normal;fill:#000000;stroke:none;">event.route.id</text></g><defs><clipPath id="_clipPath_IFi8vm3EPTOPDRzNjQgCxMwDfpKj2Ffw"><rect x="0" y="0" width="102" height="114.393" transform="matrix(1,0,0,1,568,704.266)"/></clipPath></defs><rect x="660" y="660" width="435" height="32" transform="matrix(1,0,0,1,0,0)" fill="rgb(227,214,194)"/><g clip-path="url(#_clipPath_IxMOiXH5V8fJnrbYMkbkp5CvaR5kszY1)"><text transform="matrix(1,0,0,1,824.5,680.655)" style="font-family:'Open Sans';font-weight:700;font-size:12px;font-style:normal;fill:#a26914;stroke:none;">SvelteKit Routing</text></g><defs><clipPath id="_clipPath_IxMOiXH5V8fJnrbYMkbkp5CvaR5kszY1"><rect x="0" y="0" width="106" height="16.342" transform="matrix(1,0,0,1,824.5,667.829)"/></clipPath></defs></g><g><mask id="_mask_Q1kBTb5iMW1KHd8c2XGcY3qdLxxApnWq"><rect x="560" y="610" width="603" height="1007" fill="white" stroke="none"/></mask><rect x="560" y="610" width="603" height="1007" transform="matrix(1,0,0,1,0,0)" fill="none"/><rect x="560" y="610" width="603" height="1007" transform="matrix(1,0,0,1,0,0)" fill="none" mask="url(#_mask_Q1kBTb5iMW1KHd8c2XGcY3qdLxxApnWq)" vector-effect="non-scaling-stroke" stroke-width="2" stroke-dasharray="4,5" stroke="rgb(151,151,151)" stroke-linejoin="miter" stroke-linecap="square" stroke-miterlimit="2"/><g clip-path="url(#_clipPath_FjGndZFLdsftjQJxuuddFidDy8PjcWYH)"><text transform="matrix(1,0,0,1,1126,622.826)" style="font-family:'Open Sans';font-weight:400;font-size:12px;font-style:normal;fill:#000000;stroke:none;">server</text></g><defs><clipPath id="_clipPath_FjGndZFLdsftjQJxuuddFidDy8PjcWYH"><rect x="0" y="0" width="37" height="16.342" transform="matrix(1,0,0,1,1126,610)"/></clipPath></defs></g><g><line x1="705" y1="502" x2="705" y2="660" vector-effect="non-scaling-stroke" stroke-width="1" stroke="rgb(181,124,40)" stroke-linejoin="miter" stroke-linecap="square" stroke-miterlimit="3"/><path d=" M 700 650 L 705 660 L 710 650 Z " fill="rgb(181,124,40)" stroke="none"/><g clip-path="url(#_clipPath_BUBDzXUfsSYxarz9u1OL6Zhg47PP7x9b)"><text transform="matrix(1,0,0,1,710,517.826)" style="font-family:'Open Sans';font-weight:400;font-size:12px;font-style:normal;fill:#a26914;stroke:none;">request</text></g><defs><clipPath id="_clipPath_BUBDzXUfsSYxarz9u1OL6Zhg47PP7x9b"><rect x="0" y="0" width="46" height="16.342" transform="matrix(1,0,0,1,710,505)"/></clipPath></defs><rect x="590" y="470" width="220" height="32" transform="matrix(1,0,0,1,0,0)" fill="rgb(227,214,194)"/><g clip-path="url(#_clipPath_XJPWVsVjkemC0RjQjz1t05iKaEOCoKys)"><text transform="matrix(1,0,0,1,651,490.655)" style="font-family:'Open Sans';font-weight:700;font-size:12px;font-style:normal;fill:#a26914;stroke:none;">Browser Engine</text></g><defs><clipPath id="_clipPath_XJPWVsVjkemC0RjQjz1t05iKaEOCoKys"><rect x="0" y="0" width="95" height="16.342" transform="matrix(1,0,0,1,651,477.829)"/></clipPath></defs></g><g><line x1="670" y1="432" x2="670" y2="470" vector-effect="non-scaling-stroke" stroke-width="1" stroke="rgb(181,124,40)" stroke-linejoin="miter" stroke-linecap="square" stroke-miterlimit="3"/><path d=" M 665 460 L 670 470 L 675 460 Z " fill="rgb(181,124,40)" stroke="none"/><g clip-path="url(#_clipPath_l1tpnK8AspdIkTBF2I3H6nV8Inn6A1wB)"><text transform="matrix(1,0,0,1,611,447.826)" style="font-family:'Open Sans';font-weight:400;font-size:12px;font-style:normal;fill:#a26914;stroke:none;">response</text></g><defs><clipPath id="_clipPath_l1tpnK8AspdIkTBF2I3H6nV8Inn6A1wB"><rect x="0" y="0" width="54" height="16.342" transform="matrix(1,0,0,1,611,435)"/></clipPath></defs><mask id="_mask_WHnpFvtGWbbAbUD73HHI5cnmi3h4lY7Q"><rect x="590" y="365" width="95" height="67" fill="white" stroke="none"/></mask><rect x="590" y="365" width="95" height="67" transform="matrix(1,0,0,1,0,0)" fill="none"/><rect x="590" y="365" width="95" height="67" transform="matrix(1,0,0,1,0,0)" fill="none" mask="url(#_mask_WHnpFvtGWbbAbUD73HHI5cnmi3h4lY7Q)" vector-effect="non-scaling-stroke" stroke-width="2" stroke="rgb(170,125,58)" stroke-linejoin="miter" stroke-linecap="square" stroke-miterlimit="2"/><g clip-path="url(#_clipPath_WLtuZUB9EeU068IPGNYIDyd0jz0bvEUD)"><text transform="matrix(1,0,0,1,593.33,379.459)" style="font-family:'Open Sans';font-weight:700;font-size:12px;font-style:normal;fill:#a26914;stroke:none;">hooks.server.</text><text transform="matrix(1,0,0,1,593.33,395.801)" style="font-family:'Open Sans';font-weight:700;font-size:12px;font-style:normal;fill:#a26914;stroke:none;">js </text><text transform="matrix(1,0,0,1,593.33,412.143)" style="font-family:'Open Sans';font-weight:700;font-size:12px;font-style:normal;fill:#a26914;stroke:none;">handle() </text><text transform="matrix(1,0,0,1,593.33,428.484)" style="font-family:'Open Sans';font-weight:700;font-size:12px;font-style:normal;fill:#a26914;stroke:none;">after resolve</text></g><defs><clipPath id="_clipPath_WLtuZUB9EeU068IPGNYIDyd0jz0bvEUD"><rect x="0" y="0" width="89.875" height="65.367" transform="matrix(1,0,0,1,592.563,366.633)"/></clipPath></defs></g><g><line x1="705" y1="432" x2="705" y2="470" vector-effect="non-scaling-stroke" stroke-width="1" stroke="rgb(181,124,40)" stroke-linejoin="miter" stroke-linecap="square" stroke-miterlimit="3"/><path d=" M 700 460 L 705 470 L 710 460 Z " fill="rgb(181,124,40)" stroke="none"/><g clip-path="url(#_clipPath_NJsfRur9LOYuLYP3YqF7IMedFID3M2hz)"><text transform="matrix(1,0,0,1,710,447.826)" style="font-family:'Open Sans';font-weight:400;font-size:12px;font-style:normal;fill:#a26914;stroke:none;">url string</text></g><defs><clipPath id="_clipPath_NJsfRur9LOYuLYP3YqF7IMedFID3M2hz"><rect x="0" y="0" width="53" height="16.342" transform="matrix(1,0,0,1,710,435)"/></clipPath></defs><rect x="690" y="400" width="120" height="32" transform="matrix(1,0,0,1,0,0)" fill="rgb(251,238,218)"/><g clip-path="url(#_clipPath_B4UZ5PSUjGd6AIMzMCBeKurlZnUqqHUT)"><text transform="matrix(1,0,0,1,694,420.655)" style="font-family:'Open Sans';font-weight:700;font-size:12px;font-style:normal;fill:#a26914;stroke:none;">Url Bar in Browser</text></g><defs><clipPath id="_clipPath_B4UZ5PSUjGd6AIMzMCBeKurlZnUqqHUT"><rect x="0" y="0" width="112" height="16.342" transform="matrix(1,0,0,1,694,407.829)"/></clipPath></defs></g><g><line x1="705" y1="362" x2="705" y2="400" vector-effect="non-scaling-stroke" stroke-width="1" stroke="rgb(181,124,40)" stroke-linejoin="miter" stroke-linecap="square" stroke-miterlimit="3"/><path d=" M 700 390 L 705 400 L 710 390 Z " fill="rgb(181,124,40)" stroke="none"/><g clip-path="url(#_clipPath_nD9oR9gaJhw5maExiQGVC5ALE9VZlWAq)"><text transform="matrix(1,0,0,1,710,377.826)" style="font-family:'Open Sans';font-weight:400;font-size:12px;font-style:normal;fill:#a26914;stroke:none;">type url string</text></g><defs><clipPath id="_clipPath_nD9oR9gaJhw5maExiQGVC5ALE9VZlWAq"><rect x="0" y="0" width="80" height="16.342" transform="matrix(1,0,0,1,710,365)"/></clipPath></defs><rect x="690" y="330" width="120" height="32" transform="matrix(1,0,0,1,0,0)" fill="rgb(251,238,218)"/><g clip-path="url(#_clipPath_LNyttFPmFQM2COMzTAeiD6cuQmQqlVOa)"><text transform="matrix(1,0,0,1,735,350.655)" style="font-family:'Open Sans';font-weight:700;font-size:12px;font-style:normal;fill:#a26914;stroke:none;">User</text></g><defs><clipPath id="_clipPath_LNyttFPmFQM2COMzTAeiD6cuQmQqlVOa"><rect x="0" y="0" width="30" height="16.342" transform="matrix(1,0,0,1,735,337.829)"/></clipPath></defs></g><g><line x1="705" y1="272" x2="705" y2="330" vector-effect="non-scaling-stroke" stroke-width="1" stroke="rgb(181,124,40)" stroke-linejoin="miter" stroke-linecap="square" stroke-miterlimit="3"/><path d=" M 700 320 L 705 330 L 710 320 Z " fill="rgb(181,124,40)" stroke="none"/><g clip-path="url(#_clipPath_GDg5xWAPtl4sub3nfLEYgrQrvwz1gP0w)"><text transform="matrix(1,0,0,1,690,263.759)" style="font-family:'Open Sans';font-weight:700;font-size:20px;font-style:normal;fill:#a26914;stroke:none;">Start</text></g><defs><clipPath id="_clipPath_GDg5xWAPtl4sub3nfLEYgrQrvwz1gP0w"><rect x="0" y="0" width="52" height="32" transform="matrix(1,0,0,1,690,240)"/></clipPath></defs></g><g><mask id="_mask_FJ2XpswvZGzAkh0RlX88zwaJig2JobpS"><rect x="560" y="300" width="320" height="240" fill="white" stroke="none"/></mask><rect x="560" y="300" width="320" height="240" transform="matrix(1,0,0,1,0,0)" fill="none"/><rect x="560" y="300" width="320" height="240" transform="matrix(1,0,0,1,0,0)" fill="none" mask="url(#_mask_FJ2XpswvZGzAkh0RlX88zwaJig2JobpS)" vector-effect="non-scaling-stroke" stroke-width="2" stroke-dasharray="4,5" stroke="rgb(151,151,151)" stroke-linejoin="miter" stroke-linecap="square" stroke-miterlimit="2"/><g clip-path="url(#_clipPath_hhYj1bwvagpiF6y9RpJvZtiLBbQu3l6e)"><text transform="matrix(1,0,0,1,847.441,312.826)" style="font-family:'Open Sans';font-weight:400;font-size:12px;font-style:normal;fill:#000000;stroke:none;">client</text></g><defs><clipPath id="_clipPath_hhYj1bwvagpiF6y9RpJvZtiLBbQu3l6e"><rect x="0" y="0" width="33" height="16.342" transform="matrix(1,0,0,1,847,300)"/></clipPath></defs></g><g clip-path="url(#_clipPath_dvJuAsP2CJzaHmGistgjaezxVlGfvBZO)"><text transform="matrix(1,0,0,1,927.343,361.479)" style="font-family:'Open Sans';font-weight:700;font-size:36px;font-style:normal;fill:#404040;stroke:none;">Range and </text><text transform="matrix(1,0,0,1,938.338,410.504)" style="font-family:'Open Sans';font-weight:700;font-size:36px;font-style:normal;fill:#404040;stroke:none;">Direction</text><text transform="matrix(1,0,0,1,909.229,459.529)" style="font-family:'Open Sans';font-weight:700;font-size:36px;font-style:normal;fill:#404040;stroke:none;">of Data Flow</text><text transform="matrix(1,0,0,1,889.154,508.555)" style="font-family:'Open Sans';font-weight:700;font-size:36px;font-style:normal;fill:#404040;stroke:none;">in SvelteKit 1.0</text></g><defs><clipPath id="_clipPath_dvJuAsP2CJzaHmGistgjaezxVlGfvBZO"><rect x="0" y="0" width="277" height="216" transform="matrix(1,0,0,1,884,323)"/></clipPath></defs></g></svg>